Patient4_TMGait_0pt8_01_right_21_EMG.mot
version=1
nRows=36
nColumns=33
inDegrees=no
endheader
time	1LAddLong	2LGlutMax	3LGlutMed	4LIliopsoas	5LSemiMemb	6LBicFemLong	7LRecFem	8LVastMed	9LVastLat	10LGasMed	11LTibAnt	12lTibPost	13LPeroneusLong	14LSol	15LExtDigLong	16LFlexDigLong	17RAddLong	18RGlutMax	19RGlutMed	20RIliopsoas	21RSemiMemb	22RBicFemLong	23RRecFem	24RVastMed	25RVastLat	26RGasMed	27RTibAnt	28RTibPost	29RPeroneusLong	30RSol	31RExtDigLong	32RFlexDigLong
24.555	0.007935	0.062714	-0.013733	-0.000458	0.032654	-0.025177	0.31036	0.002136	-0.10773	0.12695	0.016479	0.009003	0.01297	-0.080872	-0.75668	0.77637	-0.1178	-0.002899	-0.18341	-0.045776	0.18265	-0.006714	-0.16449	-0.009155	0.017853	0.019684	-0.20737	-0.014191	-0.12009	0.014801	0	-0.029144
24.556	-0.002747	0.077667	0.016327	0.00351	0.027618	-0.027008	0.33966	-0.005188	-0.093384	0.044708	0.10315	0.011902	-0.031281	-0.12146	-0.43182	0.24231	-0.12924	-0.002136	0.21454	-0.071106	0.0354	-0.023193	-0.13153	-0.005188	0.012817	0.013885	-0.054169	-0.011139	-0.13718	0.093231	0.000305	-0.037842
24.557	-0.002899	0.099182	0.019531	0.010376	0.020905	-0.028534	0.38589	-0.002289	-0.12207	-0.017395	0.06073	0.009918	-0.039215	-0.014496	-0.15457	-0.16922	-0.11765	0.058289	0.38895	-0.10071	-0.17395	0.046387	-0.11704	0.022736	0.019073	0.012054	-0.049286	-0.019226	0.031586	0.01709	0.004425	-0.021973
24.558	-0.003052	0.087891	0.038147	0.019684	0.010834	-0.046997	0.40375	-0.001068	-0.12299	-0.031586	0.054932	0.005798	-0.048218	-0.19241	-0.046692	-0.05722	-0.069275	-0.029755	0.067291	-0.034943	-0.30945	0.099182	-0.040131	0.03006	-0.000458	0.01236	-0.083466	-0.012512	0.090637	-0.046082	0.002747	-0.008392
24.559	-0.002594	0.093231	0.020599	0.015411	0.012054	-0.068054	0.38773	0	-0.11826	-0.093536	-0.041199	0.005035	-0.08667	-0.29968	-0.024719	-0.10315	-0.040894	-0.10712	0.10269	-0.009308	-0.27222	0.06546	-0.024109	-0.013123	-0.011292	0.014801	-0.069885	-0.008087	0.215	-0.06073	0.001373	-0.005341
24.56	-0.002594	0.09613	0.014648	0.009155	0.01297	-0.089417	0.36835	-0.002136	-0.12161	0.029907	-0.099335	0.002594	-0.055847	-0.20584	0.075684	-0.12924	-0.02533	-0.098267	0.084839	0.04303	-0.092773	0.060883	-0.061188	-0.001831	0.005188	0.016785	-0.11688	-0.016937	0.22186	-0.073242	0.006714	-0.053711
24.561	-0.001526	0.10284	0.014801	0.010071	0.019226	-0.054626	0.3801	-0.001831	-0.11581	0.052795	-0.084839	0.001526	-0.023041	-0.090179	0.1091	-0.00885	-0.044861	-0.14511	0.090637	0.07431	0.09903	0.097961	-0.03479	-0.006866	0.002747	0.007172	-0.17059	-0.014038	0.12802	-0.087738	0.002747	-0.053406
24.562	-0.005035	0.13077	0.004578	-0.004578	0.025635	-0.009918	0.34607	0.002594	-0.11871	-0.065155	-0.050201	-0.004578	0.062714	-0.040741	0.5658	-0.00946	-0.040588	-0.18555	-0.037689	0.074921	0.20828	0.071411	-0.005341	-0.00473	0.007324	0.006866	0.12299	-0.01236	0.044861	-0.031433	0.004578	-0.055542
24.563	-0.010986	0.14877	0.000153	0.003967	0.021667	0.079346	0.36774	-0.02121	-0.12512	-0.085907	0.007324	0.009918	0.029297	-0.15808	0.31281	-0.18509	-0.017395	-0.18402	-0.48325	0.032196	0.09079	-0.001678	-0.018616	-0.041962	0.014648	0.010223	0.24735	-0.00885	-0.15488	-0.050507	0.003967	-0.050659
24.564	0.001678	0.1532	-0.007019	0.015869	0.012207	0.17777	0.40909	0.012665	-0.13977	0.032501	0.007629	0.011902	0.04776	-0.09491	0.43243	0.112	0.015259	-0.099335	-0.64331	0.005798	0.019989	-0.05127	0.04425	-0.057068	-0.000763	0.012207	0.022125	-0.014343	-0.4274	-0.097046	0.00473	-0.062408
24.565	-0.007629	0.17456	-0.091248	0.010223	0.001984	0.17197	0.43655	-0.005493	-0.1506	0.000916	-0.090637	0.009308	0.078583	0.083466	-0.13641	-0.43869	0.018616	-0.097809	0.27908	-0.067902	-0.2536	-0.04837	0.019073	-0.036469	-0.005646	0.004883	-0.055847	-0.014343	-0.634	-0.12589	0.004272	-0.089111
24.566	-0.007782	0.17624	-0.083008	0.00946	0.003967	0.15884	0.41473	-0.006104	-0.12619	-0.061646	-0.055695	-0.001678	0.066986	0.14725	-0.32135	0.070038	0.051727	-0.11658	0.41245	-0.03479	-0.48874	0.026245	0.011902	-0.039215	0.017853	0.001068	-0.029297	-0.010529	-0.21606	-0.069275	0.002289	-0.070801
24.567	-0.005798	0.17639	-0.049896	0.010071	0.008698	0.15564	0.41046	-0.00061	-0.18982	-0.016937	0.088501	0.006714	0.063019	0.17364	1.2476	0.027618	0.048218	-0.16571	0.013885	0.041504	-0.4982	0.028839	0.006104	0.011902	0.010223	0.014191	-0.16724	-0.013733	0.91431	-0.059967	-0.006409	-0.07431
24.568	-0.010986	0.18127	0.013428	0.023346	0.020447	-0.035553	0.38589	0.001526	-0.19714	0.00061	0.046234	0.008545	0.029297	0.10803	0.43671	0.007629	-0.018616	-0.18539	0.14572	0.006409	0.2066	0.028839	-0.002594	0.028381	0.030212	0.024414	-0.058441	-0.011444	0.72708	-0.053406	0.006714	-0.068817
24.569	-0.007935	0.16968	0.17502	0.003357	0.00824	-0.1033	0.37308	0.017395	-0.21255	-0.050354	0.097046	0.018158	0.020294	0.017853	-0.39459	0.005951	-0.037994	-0.10117	0.26703	-0.008545	0.49118	0.022888	0.061035	0.036316	0.00473	0.007782	0.15228	-0.015259	0.006561	0.007019	0.003967	-0.08667
24.57	-0.002136	0.097656	0.15686	0.00946	0.016174	-0.15549	0.25482	0.009155	-0.23285	0.080566	0.03891	-0.003662	-0.004425	-0.13153	-0.82077	-0.020142	-0.047607	-0.14557	0.13825	-0.018005	0.22675	-0.033875	0.040894	-0.022888	0.003967	-0.006561	0.23697	-0.013123	-0.49927	0.046539	0.006561	-0.11246
24.571	-0.001984	0.078583	0.037079	0.023193	0.013275	-0.16266	0.10849	0.00473	-0.22522	0.2388	-0.11139	-0.022125	-0.033112	-0.22858	-0.55191	-0.020599	-0.029602	-0.10407	-0.010223	-0.001221	0.084686	-0.082397	0.068817	0.002289	0.019531	0.005951	0.24384	-0.009308	-0.10315	0.003357	0.000916	-0.10788
24.572	-0.001984	0.1004	0.080719	-0.00473	0.009766	-0.086212	0.17044	0.020599	-0.26321	-0.096436	-0.22064	-0.001831	0.007629	-0.17242	-0.38574	-0.034943	-0.032349	-0.099487	-0.016632	-0.024567	-0.02182	-0.098877	-0.00351	-0.012207	0.015869	0.002747	0.023804	-0.015106	0.046692	-0.029144	0.001678	-0.11627
24.573	0.005188	0.075531	0.13504	-0.005188	0.01358	-0.057068	0.30273	0.021973	-0.19409	-0.041504	0.090485	0.005188	-0.023193	-0.11719	-0.19989	-0.02594	-0.032043	-0.082092	0.18082	-0.001831	-0.054626	-0.10269	0.002594	0.022583	0.013275	-0.010376	-0.50568	-0.011139	0.76889	-0.048065	0.009918	-0.010834
24.574	-0.008087	0.048065	0.2301	0.007935	0.006256	-0.034027	0.37109	0.003967	-0.12878	0.039368	0.031433	0.004425	0.006866	0.077209	0.049591	0.017548	-0.022736	-0.087891	0.002899	0.012665	0.00885	-0.060425	-0.025635	0.005798	0.025177	-0.022888	-0.66803	-0.01358	0.63614	0.010223	0.006409	0.042267
24.575	-0.008698	0.021973	0.20996	0.020599	0.005035	0.001984	0.43366	-0.005188	-0.089722	0.041962	0.012207	0.007477	-0.042572	0.040131	0.16052	-0.002441	0.012665	-0.037689	-0.002136	0.04776	0.016479	0.022583	-0.071259	0.048676	0.03418	-0.012512	-0.33722	-0.005035	0.14297	-0.012665	0.002747	-0.048523
24.576	-0.004883	-0.026703	0.15305	0.021057	0.014038	0.01709	0.43854	-0.016785	0.040741	0.058899	0.12817	0.012207	-0.042572	0.10635	0.12756	-0.466	0.016785	-0.04364	-0.13138	0.002289	0.014954	0.26443	-0.10712	0.038757	0.024719	-0.010681	0.031433	-0.006409	-0.014191	-0.002899	0.005035	-0.12848
24.577	0.005646	-0.050659	0.064392	0.014343	0.011292	0.026855	0.3186	-0.015106	-0.057831	0.084381	0.26581	-0.01358	-0.041809	0.19363	0.066376	0.089569	0.01236	-0.13458	-0.006866	-0.046387	0.00946	0.20798	-0.065002	0.074463	0.032501	-0.02533	0.10666	-0.010986	0.29236	0.016174	0.00946	-0.1651
24.578	0.002747	-0.061798	0.061646	0.012512	0.004578	0.037231	0.37994	-0.011749	-0.056305	0.052185	0.091248	-0.012054	0.043945	0.18662	0.034637	0.23377	0.001984	-0.080414	-0.14587	-0.016785	0.000305	0.14679	-0.032196	0.052948	0.01358	-0.012665	0.075836	-0.014343	0.29511	0.036163	0.003967	-0.14954
24.579	-0.007019	-0.096588	0.059662	-0.001373	0.011749	0.025787	0.3157	0.005951	-0.13123	0.05661	-0.2536	-0.002136	0.048523	0.12451	-0.067596	0.058746	0.02121	-0.11749	-0.42801	0.061035	0.007019	0.076904	0.006561	-0.001984	0.002747	-0.014648	0.070038	-0.007324	-0.10422	0.071106	0.005798	-0.12802
24.58	-0.000458	-0.097809	0.08194	-0.008392	0.00351	0.009155	0.26749	0.019684	-0.10483	0.033417	-0.12116	0.007019	-0.010223	0.041962	-0.013275	0.024109	0.031281	-0.10712	-0.19486	0.060883	-0.03067	-0.014954	-0.016327	-0.031586	0.010986	-0.014038	0.019989	-0.006256	0.20798	0.047913	0.004883	-0.10315
24.581	0.007324	-0.075531	0.10681	-0.009613	0.006866	0.009766	0.30563	0.01297	-0.02533	0.098724	0.10437	0.00061	-0.044708	-0.059509	-0.042114	0.19699	0.066376	-0.10666	0.010071	0.0177	-0.15579	-0.054169	0.024567	-0.005646	0.006866	-0.011597	0.065155	-0.010834	-0.02655	0.014954	0.005951	-0.073395
24.582	-0.000305	-0.080414	0.093536	-0.011902	0.00946	0.039368	0.35355	-0.000458	-0.087738	0.033112	-0.00061	0.003357	-0.023804	-0.062103	0.12146	-0.18707	0.087433	-0.030212	0.24445	0.018921	-0.21896	-0.11917	0.009766	-0.049133	0.010986	-0.009308	0.18188	-0.010223	-0.22293	0.005798	0.005951	-0.039215
24.583	-0.01297	-0.10132	0.10925	0.006866	0.006866	0.015106	0.31769	-0.004425	-0.12054	-0.11383	-0.069885	0.001831	0.05722	0.043793	0.15686	0.049286	0.09552	-0.051117	0.14328	0.027161	-0.28503	-0.18005	-0.003967	-0.046844	-0.007019	-0.014343	0.35141	-0.014801	0.092926	0.001831	0.00351	-0.011444
24.584	-0.007172	-0.11429	0.10895	0.018616	0.006714	0.031586	0.3833	-0.022125	-0.1268	-0.075531	-0.20645	0.003052	0.094147	0.049744	0.095673	-0.082397	0.12146	-0.024109	0.001373	0.014648	-0.072174	-0.19821	0.024719	-0.035248	0.0177	-0.014648	0.46219	-0.006409	0.24307	-0.01358	-0.000458	0.015564
24.585	-0.012817	-0.10696	0.086365	0.004578	0.004425	0.022278	0.4158	-0.012665	-0.12146	-0.000763	-0.10727	0.012665	0.000153	-0.02121	0.1033	-0.33722	0.09613	-0.049438	-0.014496	0.006104	0.061035	-0.10757	-0.011902	-0.12451	0.005646	-0.018311	0.48004	-0.010223	0.056763	-0.041504	0.006866	0.042267
24.586	-0.008698	-0.16037	0.072327	-0.00061	0.003815	0.001678	0.43778	-0.012817	-0.090027	0.00824	0.000916	0.015259	-0.038605	-0.0354	0.070343	0.062561	0.006866	-0.063477	-0.11353	0.006561	0.033112	0.026703	-0.016022	-0.04776	0.004578	-0.005035	0.25848	-0.010834	-0.18646	-0.067444	0.006256	0.06897
24.587	0.000305	-0.14648	0.19241	-0.005798	0.006409	0.014496	0.43945	-0.004272	-0.075226	0.029449	0.014343	0.003815	-0.015869	0.049744	-0.09079	0.29358	-0.011292	-0.080719	-0.03952	0.016022	0.00824	0.10468	-0.040436	0.050964	0.015717	0.000305	-0.18097	-0.007324	-0.46036	-0.06485	0.009003	0.068359
24.588	-0.003204	-0.14435	0.16296	0.008698	0.001221	0.002594	0.47379	-0.005035	-0.10925	0.019073	0.077362	0.011597	0.00824	0.23987	-0.10574	0.11292	-0.009766	-0.005798	-0.10147	0.007172	0.017242	0.15305	0.003357	-0.020294	0.016327	-0.005188	-0.34668	-0.007935	-0.39932	-0.053558	0.007782	0.07309
24.589	-0.003815	-0.15945	0.12131	0.007935	-0.001373	0.005646	0.37735	0.015106	-0.10696	0.007935	-0.014801	0.005646	0.03479	0.34561	-0.009308	0.1297	-0.050201	0.005035	-0.15167	0.034943	0.053406	0.1471	0.006409	-0.079346	-0.000916	-0.013123	-0.36514	-0.011444	-0.14725	-0.033417	0.00473	0.071716
24.59	-0.006409	-0.17425	0.15869	0.019684	0.002899	0.008698	0.28702	0.004272	-0.040436	0.042572	-0.059662	0.002441	0.011139	0.34729	0.029144	-0.085907	-0.076294	0.038757	0.036011	0.005951	-0.069733	0.19424	0.020142	-0.072479	-0.003052	-0.013733	-0.27786	-0.008698	-0.050049	0.010223	0.008698	0.070496
